<svg width="36" height="36" viewBox="0 0 36 36" fill="none" xmlns="http://www.w3.org/2000/svg">
<path d="M14.1158 16.4042L17.9998 12.5203L21.8858 16.4062L24.1458 14.1462L17.9998 8L11.8559 14.1442L14.1158 16.4042ZM8 17.9997L10.2601 15.7396L12.52 17.9995L10.2599 20.2596L8 17.9997ZM14.1158 19.5958L17.9998 23.4797L21.8857 19.5939L24.1469 21.8527L24.1458 21.8539L17.9998 28L11.8557 21.856L11.8525 21.8528L14.1158 19.5958ZM23.4801 18.0009L25.7401 15.7409L28.0001 18.0008L25.74 20.2609L23.4801 18.0009Z" fill="#929292"/>
<path d="M20.2918 18.0003H20.2928L17.9995 15.707L16.3047 17.4018H16.3046L16.1099 17.5966L15.7083 17.9983L15.7051 18.0014L15.7083 18.0047L17.9995 20.296L20.2928 18.0027L20.2939 18.0014L20.2918 18.0003Z" fill="#929292"/>
</svg>
