<svg width="36" height="36" viewBox="0 0 36 36" fill="none" xmlns="http://www.w3.org/2000/svg">
<rect width="36" height="36" fill="#929293" fill-opacity="0.2"/>
<path d="M24.3859 14.7486C24.197 12.6522 22.3927 11.9389 20.1105 11.7252L20.128 8.81898L18.359 8.80858L18.3421 11.6382C17.877 11.6354 17.4017 11.6417 16.9292 11.6483L16.9467 8.79988L15.1787 8.78922L15.1606 11.6946C14.7777 11.7001 14.4014 11.7051 14.0347 11.703L14.0346 11.6939L11.5947 11.6784L11.5838 13.5677C11.5838 13.5677 12.8903 13.5508 12.8685 13.5746C13.5849 13.5791 13.8157 13.9965 13.8815 14.3559L13.8616 17.6667C13.911 17.6672 13.9755 17.6696 14.0486 17.6802C13.9896 17.6799 13.9267 17.6792 13.8617 17.6794L13.8332 22.3175C13.8006 22.5428 13.6658 22.9017 13.1652 22.8994C13.1878 22.9196 11.8793 22.8914 11.8793 22.8914L11.515 25.002L13.8172 25.0158C14.2456 25.0189 14.6671 25.0288 15.081 25.0337L15.0641 27.9731L16.8312 27.9839L16.8485 25.0757C17.3337 25.0886 17.8031 25.0953 18.2617 25.0977L18.2434 27.9925L20.0125 28.0029L20.0306 25.0688C23.0058 24.9161 25.0918 24.1794 25.367 21.388C25.5892 19.1404 24.5375 18.1307 22.8518 17.7151C23.8806 17.199 24.5274 16.2827 24.3866 14.7487L24.3859 14.7484L24.3859 14.7486ZM21.8731 21.0186C21.8608 23.2152 18.1013 22.9427 16.9023 22.9366L16.9263 19.0422C18.1255 19.0498 21.8871 18.7275 21.8732 21.0186L21.8731 21.0186ZM21.0834 15.5191C21.0709 17.5175 17.9356 17.2654 16.937 17.2595L16.9584 13.7275C17.957 13.7335 21.0958 13.4349 21.0835 15.5191L21.0834 15.5191Z" fill="#929292"/>
</svg>
