<svg width="1000" height="1000" viewBox="0 0 1000 1000" fill="none" xmlns="http://www.w3.org/2000/svg">
<g clip-path="url(#clip0_4_42)">
<path d="M971.604 333.333C990.052 385.422 1000 441.671 1000 500.09C1000 558.51 990.052 614.578 971.604 666.847H28.3957C9.94754 614.578 0 558.51 0 500.09C0 441.671 9.94754 385.603 28.3957 333.333H971.604Z" fill="#0039A6"/>
<path d="M500.091 0C717.852 0 903.057 139.085 971.785 333.333H28.396C53.5362 262.254 94.2307 198.589 146.32 146.5C236.933 55.8871 361.91 0 500.091 0Z" fill="white"/>
<path d="M28.396 666.848H971.604C946.464 737.927 905.77 801.592 853.5 853.862C763.068 944.294 637.909 1000.36 499.91 1000.36C361.729 1000.36 236.752 944.294 146.32 853.862C94.2307 801.592 53.5362 737.747 28.396 666.848Z" fill="#D52B1E"/>
</g>
<defs>
<clipPath id="clip0_4_42">
<rect width="1000" height="1000" fill="white"/>
</clipPath>
</defs>
</svg>
