<svg width="36" height="36" viewBox="0 0 36 36" fill="none" xmlns="http://www.w3.org/2000/svg">
<path d="M25.8861 12.2657C25.08 11.6987 24.218 11.0941 23.3746 10.4942C23.356 10.4802 23.3373 10.4661 23.314 10.4521C23.2209 10.3818 23.1137 10.3068 22.9832 10.2646L22.9739 10.2599C20.7187 9.7116 18.4262 9.14923 16.2083 8.6056C14.1954 8.11352 12.1871 7.62144 10.1742 7.12936C10.1229 7.1153 10.0717 7.10124 10.0158 7.08718C9.83405 7.03563 9.62438 6.97939 9.40072 7.00751C9.33549 7.01688 9.27957 7.04031 9.22832 7.07312L9.1724 7.11998C9.08387 7.20434 9.03728 7.31213 9.01398 7.37305L9 7.41055V7.62612L9.00932 7.65893C10.2814 11.2441 11.586 14.8808 12.8441 18.4003C13.8133 21.1091 14.8197 23.9163 15.8029 26.6719C15.8635 26.8594 16.0359 26.9813 16.2502 27H16.2968C16.4972 27 16.6742 26.9016 16.7628 26.7422L20.4531 21.3294C21.3524 20.0125 22.2517 18.6909 23.151 17.374C23.5191 16.835 23.8872 16.2914 24.2553 15.7525C24.861 14.862 25.4854 13.9435 26.1051 13.0484L26.1377 13.0015V12.9453C26.1517 12.7812 26.1563 12.4438 25.8861 12.2657ZM21.5621 14.2387C20.6954 14.6933 19.8101 15.162 18.9201 15.6259C19.4373 15.0682 19.9592 14.5059 20.4764 13.9482C21.1241 13.2452 21.7997 12.5188 22.4614 11.8065L22.4753 11.7924C22.5312 11.7174 22.6011 11.6471 22.6757 11.5721C22.7269 11.5206 22.7829 11.469 22.8341 11.4081C23.1789 11.6471 23.5284 11.8908 23.8639 12.1298C24.1062 12.3032 24.3531 12.4766 24.6047 12.65C23.5796 13.1749 22.5545 13.7139 21.5621 14.2387ZM19.3348 14.0138C18.6685 14.7402 17.9789 15.4853 17.2939 16.2211C15.966 14.5996 14.6101 12.9546 13.2961 11.3659C12.6997 10.6442 12.0986 9.91781 11.5022 9.19609L11.4975 9.19141C11.3624 9.03675 11.2319 8.86804 11.1014 8.7087C11.0176 8.60091 10.929 8.49781 10.8405 8.39002C11.381 8.53061 11.9262 8.66183 12.462 8.78837C12.9326 8.90084 13.4219 9.01801 13.9018 9.13985C16.6043 9.80065 19.3115 10.4614 22.014 11.1222C21.1147 12.0876 20.2108 13.0671 19.3348 14.0138ZM16.9911 23.1477C17.0423 22.6556 17.0982 22.1495 17.1448 21.6527C17.1868 21.2544 17.2287 20.8467 17.2706 20.4577C17.3359 19.8344 17.4058 19.1877 17.4617 18.555L17.4757 18.4425C17.5223 18.0395 17.5689 17.6224 17.5968 17.2053C17.6481 17.1772 17.704 17.149 17.7646 17.1256C17.8344 17.0928 17.9043 17.0647 17.9742 17.0225C19.0506 16.4554 20.1269 15.8884 21.2079 15.326C22.2843 14.7636 23.3886 14.1825 24.4836 13.6061C23.4864 15.0589 22.4846 16.5257 21.5155 17.9551C20.6814 19.1783 19.8241 20.4389 18.9714 21.6809C18.6359 22.1776 18.2864 22.6838 17.9556 23.1712C17.5828 23.7148 17.2008 24.2725 16.828 24.8302C16.8746 24.2678 16.9305 23.7007 16.9911 23.1477ZM10.4957 9.49603C10.4351 9.32731 10.3699 9.15391 10.314 8.98989C11.5721 10.5177 12.8394 12.0548 14.0742 13.5451C14.7126 14.3184 15.3509 15.087 15.9893 15.8649C16.1151 16.0102 16.2409 16.1649 16.362 16.3148C16.5205 16.507 16.6789 16.7085 16.8513 16.9007C16.7954 17.3834 16.7488 17.8708 16.6975 18.3394C16.6649 18.6675 16.6323 18.9955 16.595 19.3282V19.3329C16.581 19.5438 16.5531 19.7547 16.5298 19.9609C16.4972 20.2468 16.4226 20.8935 16.4226 20.8935L16.418 20.9263C16.3341 21.873 16.2316 22.829 16.1337 23.757C16.0918 24.1413 16.0545 24.5349 16.0126 24.9286C15.9893 24.8583 15.9613 24.788 15.938 24.7224C15.8681 24.5349 15.7982 24.3381 15.733 24.1459L15.2344 22.7541C13.6549 18.3347 12.0753 13.9201 10.4957 9.49603Z" fill="#929292"/>
</svg>
