<svg width="81" height="40" viewBox="0 0 81 40" fill="none" xmlns="http://www.w3.org/2000/svg">
<g clip-path="url(#clip0_201_173)">
<path d="M38.1413 31.4709V38.0144H1.92382V1.98564H38.1413V8.53039H40.0664V0H0V40H40.0664V31.4709H38.1413Z" fill="#181818"/>
<path d="M13.1035 20.6872C13.1035 16.8143 15.9177 13.4668 21.1802 13.4668C26.7893 13.4668 28.7466 16.688 28.7466 18.8984V19.0872H26.9516V19.0034C26.9516 17.4248 25.4427 15.1931 21.2614 15.1931C17.08 15.1931 15.0209 17.5086 15.0209 20.6872C15.0209 23.4242 16.8365 26.0975 21.3438 26.0975C25.1979 26.0975 27.0547 24.2448 27.0547 22.3297V22.2246H28.8497V22.3935C28.8497 24.9191 26.5651 27.8251 21.3438 27.8251C15.2863 27.8251 13.1048 24.1411 13.1048 20.6885L13.1035 20.6872Z" fill="#181818"/>
<path d="M30.8496 20.5821C30.8496 16.6042 33.7257 13.4668 39.3747 13.4668C45.0237 13.4668 47.8998 16.6029 47.8998 20.5821C47.8998 24.5614 45.208 27.8238 39.3747 27.8238C33.5414 27.8238 30.8496 24.8766 30.8496 20.5821ZM45.9824 20.5821C45.9824 17.5511 43.739 15.1931 39.3747 15.1931C35.0104 15.1931 32.767 17.5511 32.767 20.5821C32.767 23.9083 34.9897 26.0975 39.3747 26.0975C43.7597 26.0975 45.9824 23.7394 45.9824 20.5821Z" fill="#181818"/>
<path d="M50.0404 13.7188H62.3177V15.445H51.9564V19.8233H60.2779V21.3807H51.9564V25.844H62.5213V27.5703H50.0391V13.7188H50.0404Z" fill="#181818"/>
<path d="M71.2115 20.5388L64.3384 13.7188H67.0508L72.6599 19.2966L78.1672 13.7188H80.7984L73.884 20.4976L81.002 27.5703H78.2896L72.4563 21.781L66.7454 27.5703H64.1348L71.2115 20.5388Z" fill="#181818"/>
</g>
<defs>
<clipPath id="clip0_201_173">
<rect width="81" height="40" fill="white"/>
</clipPath>
</defs>
</svg>
